<?xml version="1.0" encoding="UTF-8"?>
<!DOCTYPE svg PUBLIC "-//W3C//DTD SVG 1.1//EN" "http://www.w3.org/Graphics/SVG/1.1/DTD/svg11.dtd">
<svg xmlns="http://www.w3.org/2000/svg" version="1.1" width="997px" height="299px" style="shape-rendering:geometricPrecision; text-rendering:geometricPrecision; image-rendering:optimizeQuality; fill-rule:evenodd; clip-rule:evenodd" xmlns:xlink="http://www.w3.org/1999/xlink">
<g><path style="opacity:1" fill="#fefefe" d="M -0.5,-0.5 C 331.833,-0.5 664.167,-0.5 996.5,-0.5C 996.5,99.1667 996.5,198.833 996.5,298.5C 664.167,298.5 331.833,298.5 -0.5,298.5C -0.5,198.833 -0.5,99.1667 -0.5,-0.5 Z"/></g>
<g><path style="opacity:1" fill="#46b171" d="M 373.5,87.5 C 387.294,86.1297 393.461,92.1297 392,105.5C 383.626,114.382 374.96,114.715 366,106.5C 362.967,97.9086 365.467,91.5752 373.5,87.5 Z"/></g>
<g><path style="opacity:1" fill="#45b170" d="M 162.5,100.5 C 185.167,100.5 207.833,100.5 230.5,100.5C 230.5,106.833 230.5,113.167 230.5,119.5C 207.833,119.5 185.167,119.5 162.5,119.5C 162.5,113.167 162.5,106.833 162.5,100.5 Z"/></g>
<g><path style="opacity:1" fill="#45b170" d="M 290.5,100.5 C 312.167,100.5 333.833,100.5 355.5,100.5C 355.5,106.833 355.5,113.167 355.5,119.5C 333.833,119.5 312.167,119.5 290.5,119.5C 290.5,113.167 290.5,106.833 290.5,100.5 Z"/></g>
<g><path style="opacity:1" fill="#42b06f" d="M 442.5,118.5 C 455.351,116.901 465.518,121.234 473,131.5C 474.152,134.44 475.152,137.44 476,140.5C 476.5,155.83 476.667,171.163 476.5,186.5C 468.833,186.5 461.167,186.5 453.5,186.5C 453.667,173.496 453.5,160.496 453,147.5C 448.961,138.073 442.461,136.073 433.5,141.5C 431.349,143.772 429.849,146.439 429,149.5C 428.5,161.829 428.333,174.162 428.5,186.5C 420.833,186.5 413.167,186.5 405.5,186.5C 405.5,164.167 405.5,141.833 405.5,119.5C 412.833,119.5 420.167,119.5 427.5,119.5C 426.656,126.418 428.323,127.585 432.5,123C 435.946,121.491 439.28,119.991 442.5,118.5 Z"/></g>
<g><path style="opacity:1" fill="#44b170" d="M 511.5,147.5 C 517.868,147.83 524.202,147.496 530.5,146.5C 530.376,145.893 530.043,145.56 529.5,145.5C 528.994,140.726 526.327,137.893 521.5,137C 512.837,135.422 505.004,137.255 498,142.5C 495.5,137.5 493,132.5 490.5,127.5C 491.924,125.282 493.924,123.782 496.5,123C 512.597,116.396 528.264,117.062 543.5,125C 548.341,129.513 551.508,135.013 553,141.5C 553.5,156.496 553.667,171.496 553.5,186.5C 546.167,186.5 538.833,186.5 531.5,186.5C 531.664,183.813 531.497,181.146 531,178.5C 529.5,181.333 527.333,183.5 524.5,185C 511.182,190.312 499.682,187.812 490,177.5C 484.075,158.392 491.241,148.392 511.5,147.5 Z"/></g>
<g><path style="opacity:1" fill="#42b06f" d="M 638.5,140.5 C 638.5,155.5 638.5,170.5 638.5,185.5C 631.167,185.5 623.833,185.5 616.5,185.5C 616.829,172.989 616.495,160.655 615.5,148.5C 615.107,141.941 611.607,138.607 605,138.5C 599.594,138.533 595.594,140.866 593,145.5C 591.573,159.107 591.073,172.774 591.5,186.5C 583.833,186.5 576.167,186.5 568.5,186.5C 568.5,164.167 568.5,141.833 568.5,119.5C 575.833,119.5 583.167,119.5 590.5,119.5C 589.238,126.747 590.905,127.913 595.5,123C 610.327,115.385 623.494,117.552 635,129.5C 637.064,132.86 638.231,136.526 638.5,140.5 Z"/></g>
<g><path style="opacity:1" fill="#44b170" d="M 680.5,118.5 C 692.093,117.232 702.76,119.732 712.5,126C 715.565,128.788 717.898,132.121 719.5,136C 714.643,140.02 709.143,143.187 703,145.5C 700.216,143.72 697.716,141.553 695.5,139C 680.056,135.334 673.223,141.5 675,157.5C 679.103,168.729 686.603,171.563 697.5,166C 698.785,163.577 700.618,161.744 703,160.5C 708.757,163.293 714.257,166.46 719.5,170C 715.009,179.765 707.342,185.432 696.5,187C 679.282,189.63 665.449,184.13 655,170.5C 645.106,143.957 653.606,126.623 680.5,118.5 Z"/></g>
<g><path style="opacity:1" fill="#44b170" d="M 749.5,147.5 C 755.833,147.5 762.167,147.5 768.5,147.5C 768.768,145.901 768.434,144.568 767.5,143.5C 765.866,140.168 763.199,138.001 759.5,137C 751.441,135.8 743.941,137.3 737,141.5C 736.228,141.355 735.561,141.022 735,140.5C 732.833,136.167 730.667,131.833 728.5,127.5C 729.924,125.282 731.924,123.782 734.5,123C 750.544,116.538 766.21,117.204 781.5,125C 786.341,129.513 789.508,135.013 791,141.5C 791.5,156.496 791.667,171.496 791.5,186.5C 784.167,186.5 776.833,186.5 769.5,186.5C 769.664,183.813 769.497,181.146 769,178.5C 764.399,185.381 757.899,188.381 749.5,187.5C 732.158,186.664 724.325,177.664 726,160.5C 731.075,151.376 738.908,147.042 749.5,147.5 Z"/></g>
<g><path style="opacity:1" fill="#42b06e" d="M 367.5,119.5 C 375.167,119.5 382.833,119.5 390.5,119.5C 390.5,141.833 390.5,164.167 390.5,186.5C 382.833,186.5 375.167,186.5 367.5,186.5C 367.5,164.167 367.5,141.833 367.5,119.5 Z"/></g>
<g><path style="opacity:1" fill="#4cb475" d="M 824.5,119.5 C 826.912,119.244 828.579,120.244 829.5,122.5C 826.86,124.958 824.86,127.792 823.5,131C 824.162,133.676 825.662,135.843 828,137.5C 828.494,139.134 828.66,140.801 828.5,142.5C 827.127,142.657 825.793,142.49 824.5,142C 820.784,138.621 817.451,134.954 814.5,131C 817.656,127.011 820.989,123.177 824.5,119.5 Z"/></g>
<g><path style="opacity:1" fill="#53b67a" d="M 828.5,128.5 C 831.518,128.335 834.518,128.502 837.5,129C 838.554,130.388 838.72,131.888 838,133.5C 835.263,134.61 832.429,134.777 829.5,134C 827.365,132.444 827.032,130.611 828.5,128.5 Z"/></g>
<g><path style="opacity:1" fill="#50b578" d="M 844.5,128.5 C 847.518,128.335 850.518,128.502 853.5,129C 854.86,130.938 854.527,132.604 852.5,134C 850.167,134.667 847.833,134.667 845.5,134C 843.19,132.541 842.857,130.708 844.5,128.5 Z"/></g>
<g><path style="opacity:1" fill="#53b67a" d="M 859.5,130.5 C 864.975,130.976 867.642,133.976 867.5,139.5C 865.533,139.739 863.699,139.406 862,138.5C 860.936,136.731 859.769,135.064 858.5,133.5C 858.685,132.416 859.018,131.416 859.5,130.5 Z"/></g>
<g><path style="opacity:1" fill="#42b06e" d="M 162.5,133.5 C 185.167,133.5 207.833,133.5 230.5,133.5C 230.5,139.5 230.5,145.5 230.5,151.5C 207.833,151.5 185.167,151.5 162.5,151.5C 162.5,145.5 162.5,139.5 162.5,133.5 Z"/></g>
<g><path style="opacity:1" fill="#45b170" d="M 355.5,156.5 C 341.833,156.5 328.167,156.5 314.5,156.5C 314.5,166.5 314.5,176.5 314.5,186.5C 306.5,186.5 298.5,186.5 290.5,186.5C 290.5,170.167 290.5,153.833 290.5,137.5C 312.167,137.5 333.833,137.5 355.5,137.5C 355.5,143.833 355.5,150.167 355.5,156.5 Z"/></g>
<g><path style="opacity:1" fill="#dcf0e5" d="M 239.5,142.5 C 251.655,141.505 263.989,141.171 276.5,141.5C 276.823,148.022 276.49,154.355 275.5,160.5C 275.5,160.167 275.5,159.833 275.5,159.5C 275.5,153.833 275.5,148.167 275.5,142.5C 263.833,142.5 252.167,142.5 240.5,142.5C 240.167,142.5 239.833,142.5 239.5,142.5 Z"/></g>
<g><path style="opacity:1" fill="#41b06d" d="M 240.5,142.5 C 252.167,142.5 263.833,142.5 275.5,142.5C 275.5,148.167 275.5,153.833 275.5,159.5C 263.833,159.5 252.167,159.5 240.5,159.5C 240.5,153.833 240.5,148.167 240.5,142.5 Z"/></g>
<g><path style="opacity:1" fill="#4fb577" d="M 863.5,144.5 C 868.472,144.242 869.639,146.242 867,150.5C 865.649,152.019 864.149,153.352 862.5,154.5C 860.954,153.788 859.954,152.622 859.5,151C 861.043,148.958 862.376,146.792 863.5,144.5 Z"/></g>
<g><path style="opacity:1" fill="#a3d8b8" d="M 529.5,145.5 C 530.043,145.56 530.376,145.893 530.5,146.5C 524.202,147.496 517.868,147.83 511.5,147.5C 517.5,146.833 523.5,146.167 529.5,145.5 Z"/></g>
<g><path style="opacity:1" fill="#a1d7b7" d="M 767.5,143.5 C 768.434,144.568 768.768,145.901 768.5,147.5C 762.167,147.5 755.833,147.5 749.5,147.5C 755.31,146.51 761.31,146.177 767.5,146.5C 767.5,145.5 767.5,144.5 767.5,143.5 Z"/></g>
<g><path style="opacity:1" fill="#71c391" d="M 638.5,140.5 C 639.496,155.658 639.83,170.991 639.5,186.5C 631.5,186.5 623.5,186.5 615.5,186.5C 615.5,173.833 615.5,161.167 615.5,148.5C 616.495,160.655 616.829,172.989 616.5,185.5C 623.833,185.5 631.167,185.5 638.5,185.5C 638.5,170.5 638.5,155.5 638.5,140.5 Z"/></g>
<g><path style="opacity:1" fill="#57b87c" d="M 814.5,151.5 C 817.518,151.335 820.518,151.502 823.5,152C 824.554,153.388 824.72,154.888 824,156.5C 821.263,157.61 818.429,157.777 815.5,157C 813.365,155.444 813.032,153.611 814.5,151.5 Z"/></g>
<g><path style="opacity:1" fill="#56b77b" d="M 830.5,151.5 C 833.518,151.335 836.518,151.502 839.5,152C 840.86,153.938 840.527,155.604 838.5,157C 835.833,157.667 833.167,157.667 830.5,157C 829.248,155.172 829.248,153.339 830.5,151.5 Z"/></g>
<g><path style="opacity:1" fill="#53b679" d="M 845.5,151.5 C 848.518,151.335 851.518,151.502 854.5,152C 855.554,153.388 855.72,154.888 855,156.5C 852.263,157.61 849.429,157.777 846.5,157C 845.594,155.301 845.261,153.467 845.5,151.5 Z"/></g>
<g><path style="opacity:1" fill="#52b679" d="M 805.5,154.5 C 806.833,154.5 808.167,154.5 809.5,154.5C 809.587,158.907 807.754,162.241 804,164.5C 802.115,164.138 801.281,162.971 801.5,161C 802.205,158.458 803.539,156.292 805.5,154.5 Z"/></g>
<g><path style="opacity:1" fill="#c5e7d3" d="M 355.5,156.5 C 342.344,157.496 329.01,157.829 315.5,157.5C 315.827,167.348 315.494,177.014 314.5,186.5C 314.5,176.5 314.5,166.5 314.5,156.5C 328.167,156.5 341.833,156.5 355.5,156.5 Z"/></g>
<g><path style="opacity:1" fill="#6fc390" d="M 239.5,142.5 C 239.833,142.5 240.167,142.5 240.5,142.5C 240.5,148.167 240.5,153.833 240.5,159.5C 252.167,159.5 263.833,159.5 275.5,159.5C 275.5,159.833 275.5,160.167 275.5,160.5C 263.5,160.5 251.5,160.5 239.5,160.5C 239.5,154.5 239.5,148.5 239.5,142.5 Z"/></g>
<g><path style="opacity:1" fill="#fafdfb" d="M 515.5,159.5 C 520.5,159.5 525.5,159.5 530.5,159.5C 529.929,169.63 524.595,173.797 514.5,172C 510.708,169.947 509.542,166.781 511,162.5C 512.409,161.219 513.909,160.219 515.5,159.5 Z"/></g>
<g><path style="opacity:1" fill="#fbfdfc" d="M 753.5,159.5 C 758.5,159.5 763.5,159.5 768.5,159.5C 767.929,169.63 762.595,173.797 752.5,172C 748.708,169.947 747.542,166.781 749,162.5C 750.409,161.219 751.909,160.219 753.5,159.5 Z"/></g>
<g><path style="opacity:1" fill="#4eb476" d="M 841.5,165.5 C 846.853,168.011 851.187,171.844 854.5,177C 852.046,181.955 848.379,185.789 843.5,188.5C 841.5,188.5 840.5,187.5 840.5,185.5C 842.887,183.115 844.887,180.448 846.5,177.5C 845.272,174.762 843.438,172.429 841,170.5C 840.36,168.735 840.527,167.068 841.5,165.5 Z"/></g>
<g><path style="opacity:1" fill="#43b16f" d="M 162.5,167.5 C 185.167,167.5 207.833,167.5 230.5,167.5C 230.5,173.833 230.5,180.167 230.5,186.5C 207.833,186.5 185.167,186.5 162.5,186.5C 162.5,180.167 162.5,173.833 162.5,167.5 Z"/></g>
<g><path style="opacity:1" fill="#4db476" d="M 802.5,168.5 C 804.144,168.286 805.644,168.62 807,169.5C 807.615,171.116 808.615,172.449 810,173.5C 810.49,174.793 810.657,176.127 810.5,177.5C 805.933,177.944 802.933,175.944 801.5,171.5C 802.127,170.583 802.461,169.583 802.5,168.5 Z"/></g>
<g><path style="opacity:1" fill="#53b679" d="M 816.5,174.5 C 819.5,174.5 822.5,174.5 825.5,174.5C 826.492,178.57 824.992,180.57 821,180.5C 816.288,180.716 814.788,178.716 816.5,174.5 Z"/></g>
<g><path style="opacity:1" fill="#53b67a" d="M 831.5,174.5 C 834.518,174.335 837.518,174.502 840.5,175C 841.86,176.938 841.527,178.604 839.5,180C 837.167,180.667 834.833,180.667 832.5,180C 830.365,178.444 830.032,176.611 831.5,174.5 Z"/></g>
</svg>
