<svg width="342" height="197" viewBox="0 0 342 197" fill="none" xmlns="http://www.w3.org/2000/svg">
<g clip-path="url(#clip0_6_245)">
<path d="M74.1019 174.868C83.9248 174.868 91.8878 166.885 91.8878 157.037C91.8878 147.19 83.9248 139.207 74.1019 139.207C64.279 139.207 56.3159 147.19 56.3159 157.037C56.3159 166.885 64.279 174.868 74.1019 174.868Z" fill="#F2F2F2"/>
<path d="M76.9939 172.259C86.8168 172.259 94.7799 164.275 94.7799 154.428C94.7799 144.58 86.8168 136.597 76.9939 136.597C67.171 136.597 59.208 144.58 59.208 154.428C59.208 164.275 67.171 172.259 76.9939 172.259Z" fill="#41B06E"/>
<path d="M311.378 134.699H91.3179V135.3H311.378V134.699Z" fill="#3F3D56" stroke="#3F3D56"/>
<path d="M205.287 5.61379H127.179V3.99988H91.7624V5.61379H13.3327C12.6389 5.61379 11.9519 5.75079 11.3108 6.01698C10.6698 6.28316 10.0874 6.67331 9.59679 7.16515C9.10618 7.657 8.71701 8.2409 8.45149 8.88352C8.18597 9.52614 8.04932 10.2149 8.04932 10.9105V118.133C8.04931 119.538 8.60596 120.885 9.59678 121.878C10.5876 122.871 11.9315 123.43 13.3327 123.43H205.287C206.688 123.43 208.032 122.871 209.023 121.878C210.014 120.885 210.571 119.538 210.571 118.133V10.9105C210.571 10.2149 210.434 9.52614 210.168 8.88352C209.903 8.2409 209.514 7.657 209.023 7.16515C208.532 6.67331 207.95 6.28316 207.309 6.01698C206.668 5.75079 205.981 5.61379 205.287 5.61379Z" fill="#3F3D56"/>
<path d="M203.487 14.9745H15.1328V121.493H203.487V14.9745Z" fill="#41B06E"/>
<path d="M109.149 12.0694C110.216 12.0694 111.081 11.2024 111.081 10.1327C111.081 9.06313 110.216 8.19604 109.149 8.19604C108.082 8.19604 107.217 9.06313 107.217 10.1327C107.217 11.2024 108.082 12.0694 109.149 12.0694Z" fill="#41B06E"/>
<path opacity="0.1" d="M149.621 121.493H15.1328V14.9746L149.621 121.493Z" fill="black"/>
<path d="M44.6047 113.522C54.604 113.522 62.7099 105.396 62.7099 95.3713C62.7099 85.3469 54.604 77.2206 44.6047 77.2206C34.6055 77.2206 26.4995 85.3469 26.4995 95.3713C26.4995 105.396 34.6055 113.522 44.6047 113.522Z" fill="#F2F2F2"/>
<path d="M170.692 72.4207H153.097V76.1064H170.692V72.4207Z" fill="#3F3D56"/>
<path d="M191.962 43.7251H131.826V45.3047H191.962V43.7251Z" fill="#3F3D56"/>
<path d="M191.962 48.7271H131.826V50.3066H191.962V48.7271Z" fill="#3F3D56"/>
<path d="M191.962 53.7291H131.826V55.3086H191.962V53.7291Z" fill="#3F3D56"/>
<path d="M191.962 58.7311H131.826V60.3107H191.962V58.7311Z" fill="#3F3D56"/>
<path d="M191.962 63.733H131.826V65.3126H191.962V63.733Z" fill="#3F3D56"/>
<path d="M191.962 17.1356H184.609V24.5069H191.962V17.1356Z" fill="#F2F2F2"/>
<path d="M195.376 27.9293H186.448V18.9784H195.376V27.9293ZM186.836 27.5402H194.988V19.3676H186.836V27.5402Z" fill="#3F3D56"/>
<path d="M215.859 119.556H197.477V118.228C197.477 118.194 197.47 118.16 197.457 118.128C197.444 118.096 197.424 118.067 197.4 118.042C197.376 118.018 197.347 117.998 197.315 117.985C197.283 117.972 197.249 117.965 197.214 117.965H190.912C190.877 117.965 190.843 117.972 190.811 117.985C190.78 117.998 190.751 118.018 190.726 118.042C190.702 118.067 190.682 118.096 190.669 118.128C190.656 118.16 190.649 118.194 190.649 118.228V119.556H186.71V118.228C186.71 118.194 186.703 118.16 186.69 118.128C186.677 118.096 186.658 118.067 186.633 118.042C186.609 118.018 186.58 117.998 186.548 117.985C186.516 117.972 186.482 117.965 186.448 117.965H180.145C180.111 117.965 180.077 117.972 180.045 117.985C180.013 117.998 179.984 118.018 179.96 118.042C179.935 118.067 179.916 118.096 179.903 118.128C179.889 118.16 179.883 118.194 179.883 118.228V119.556H175.944V118.228C175.944 118.194 175.937 118.16 175.924 118.128C175.91 118.096 175.891 118.067 175.867 118.042C175.842 118.018 175.813 117.998 175.781 117.985C175.75 117.972 175.715 117.965 175.681 117.965H169.379C169.344 117.965 169.31 117.972 169.278 117.985C169.246 117.998 169.217 118.018 169.193 118.042C169.168 118.067 169.149 118.096 169.136 118.128C169.123 118.16 169.116 118.194 169.116 118.228V119.556H165.177V118.228C165.177 118.194 165.17 118.16 165.157 118.128C165.144 118.096 165.124 118.067 165.1 118.042C165.076 118.018 165.047 117.998 165.015 117.985C164.983 117.972 164.949 117.965 164.914 117.965H158.612C158.577 117.965 158.543 117.972 158.511 117.985C158.479 117.998 158.451 118.018 158.426 118.042C158.402 118.067 158.382 118.096 158.369 118.128C158.356 118.16 158.349 118.194 158.349 118.228V119.556H154.41V118.228C154.41 118.194 154.403 118.16 154.39 118.128C154.377 118.096 154.358 118.067 154.333 118.042C154.309 118.018 154.28 117.998 154.248 117.985C154.216 117.972 154.182 117.965 154.148 117.965H147.845C147.811 117.965 147.776 117.972 147.745 117.985C147.713 117.998 147.684 118.018 147.659 118.042C147.635 118.067 147.616 118.096 147.603 118.128C147.589 118.16 147.583 118.194 147.583 118.228V119.556H143.643V118.228C143.643 118.194 143.637 118.16 143.623 118.128C143.61 118.096 143.591 118.067 143.567 118.042C143.542 118.018 143.513 117.998 143.481 117.985C143.45 117.972 143.415 117.965 143.381 117.965H137.078C137.044 117.965 137.01 117.972 136.978 117.985C136.946 117.998 136.917 118.018 136.893 118.042C136.868 118.067 136.849 118.096 136.836 118.128C136.823 118.16 136.816 118.194 136.816 118.228V119.556H132.877V118.228C132.877 118.194 132.87 118.16 132.857 118.128C132.844 118.096 132.824 118.067 132.8 118.042C132.775 118.018 132.747 117.998 132.715 117.985C132.683 117.972 132.649 117.965 132.614 117.965H83.2449C83.2105 117.965 83.1763 117.972 83.1444 117.985C83.1126 117.998 83.0836 118.018 83.0592 118.042C83.0349 118.067 83.0155 118.096 83.0023 118.128C82.9891 118.16 82.9823 118.194 82.9823 118.228V119.556H79.0433V118.228C79.0433 118.194 79.0365 118.16 79.0233 118.128C79.0101 118.096 78.9908 118.067 78.9664 118.042C78.942 118.018 78.9131 117.998 78.8812 117.985C78.8493 117.972 78.8152 117.965 78.7807 117.965H72.4782C72.4438 117.965 72.4096 117.972 72.3777 117.985C72.3459 117.998 72.3169 118.018 72.2925 118.042C72.2682 118.067 72.2488 118.096 72.2356 118.128C72.2224 118.16 72.2156 118.194 72.2156 118.228V119.556H68.2766V118.228C68.2766 118.194 68.2698 118.16 68.2566 118.128C68.2434 118.096 68.2241 118.067 68.1997 118.042C68.1753 118.018 68.1464 117.998 68.1145 117.985C68.0826 117.972 68.0485 117.965 68.014 117.965H61.7115C61.6771 117.965 61.6429 117.972 61.6111 117.985C61.5792 117.998 61.5502 118.018 61.5259 118.042C61.5015 118.067 61.4821 118.096 61.4689 118.128C61.4557 118.16 61.4489 118.194 61.4489 118.228V119.556H57.5099V118.228C57.5099 118.194 57.5031 118.16 57.4899 118.128C57.4767 118.096 57.4574 118.067 57.433 118.042C57.4086 118.018 57.3797 117.998 57.3478 117.985C57.3159 117.972 57.2818 117.965 57.2473 117.965H50.9448C50.9104 117.965 50.8762 117.972 50.8444 117.985C50.8125 117.998 50.7835 118.018 50.7592 118.042C50.7348 118.067 50.7154 118.096 50.7022 118.128C50.689 118.16 50.6822 118.194 50.6823 118.228V119.556H46.7432V118.228C46.7432 118.194 46.7364 118.16 46.7232 118.128C46.71 118.096 46.6907 118.067 46.6663 118.042C46.6419 118.018 46.613 117.998 46.5811 117.985C46.5493 117.972 46.5151 117.965 46.4806 117.965H40.1782C40.1437 117.965 40.1095 117.972 40.0777 117.985C40.0458 117.998 40.0168 118.018 39.9925 118.042C39.9681 118.067 39.9487 118.096 39.9355 118.128C39.9223 118.16 39.9156 118.194 39.9156 118.228V119.556H35.9765V118.228C35.9765 118.194 35.9697 118.16 35.9565 118.128C35.9433 118.096 35.924 118.067 35.8996 118.042C35.8752 118.018 35.8463 117.998 35.8144 117.985C35.7826 117.972 35.7484 117.965 35.7139 117.965H29.4115C29.377 117.965 29.3428 117.972 29.311 117.985C29.2791 117.998 29.2502 118.018 29.2258 118.042C29.2014 118.067 29.182 118.096 29.1688 118.128C29.1556 118.16 29.1489 118.194 29.1489 118.228V119.556H25.2098V118.228C25.2098 118.194 25.203 118.16 25.1898 118.128C25.1766 118.096 25.1573 118.067 25.1329 118.042C25.1085 118.018 25.0796 117.998 25.0477 117.985C25.0159 117.972 24.9817 117.965 24.9472 117.965H18.6448C18.6103 117.965 18.5761 117.972 18.5443 117.985C18.5124 117.998 18.4835 118.018 18.4591 118.042C18.4347 118.067 18.4153 118.096 18.4022 118.128C18.389 118.16 18.3822 118.194 18.3822 118.228V119.556H6.30246C4.63094 119.556 3.02789 120.222 1.84595 121.407C0.664009 122.592 1.59245e-06 124.199 0 125.874V128.731C4.77736e-06 130.407 0.664014 132.014 1.84595 133.199C3.02789 134.384 4.63094 135.05 6.30246 135.05H215.859C217.531 135.05 219.134 134.384 220.316 133.199C221.498 132.014 222.162 130.407 222.162 128.731V125.874C222.162 124.199 221.498 122.592 220.316 121.407C219.134 120.222 217.531 119.556 215.859 119.556Z" fill="#3F3D56"/>
<path d="M48.987 106.708C44.4743 106.708 40.063 105.367 36.3108 102.853C32.5586 100.34 29.6342 96.7672 27.9072 92.5876C26.1803 88.4079 25.7285 83.8087 26.6088 79.3716C27.4892 74.9345 29.6623 70.8587 32.8532 67.6597C36.0442 64.4607 40.1097 62.2822 44.5357 61.3996C48.9617 60.517 53.5494 60.97 57.7186 62.7013C61.8877 64.4325 65.4512 67.3644 67.9583 71.126C70.4654 74.8876 71.8036 79.31 71.8036 83.8341C71.7968 89.8985 69.3907 95.7126 65.1132 100.001C60.8358 104.289 55.0363 106.701 48.987 106.708ZM48.987 61.562C44.5931 61.562 40.2978 62.8683 36.6444 65.3156C32.991 67.7628 30.1434 71.2412 28.462 75.3109C26.7805 79.3806 26.3405 83.8588 27.1977 88.1791C28.0549 92.4995 30.1708 96.468 33.2778 99.5828C36.3848 102.698 40.3433 104.819 44.6529 105.678C48.9624 106.538 53.4293 106.096 57.4888 104.411C61.5482 102.725 65.0179 99.8704 67.4591 96.2077C69.9002 92.5451 71.2032 88.239 71.2032 83.8341C71.1965 77.9292 68.8537 72.2681 64.6889 68.0927C60.524 63.9174 54.8771 61.5687 48.987 61.562Z" fill="#3F3D56" stroke="#3F3D56"/>
<path d="M252.535 9.79462H175.979V10.3966H252.535V9.79462Z" fill="#3F3D56" stroke="#3F3D56"/>
<path d="M342 168.708H121.94V169.31H342V168.708Z" fill="#3F3D56" stroke="#3F3D56"/>
<path d="M134.399 196.398H57.8438V197H134.399V196.398Z" fill="#3F3D56" stroke="#3F3D56"/>
<path d="M149.809 165.535H141.403V173.963H149.809V165.535Z" fill="#41B06E"/>
<path d="M154.913 169.147H144.705V158.914H154.913V169.147ZM145.149 168.702H154.469V159.359H145.149V168.702Z" fill="#3F3D56"/>
<path d="M247.38 6.6214H238.974V15.0486H247.38V6.6214Z" fill="#41B06E"/>
<path d="M252.484 10.2331H242.276V0H252.484V10.2331ZM242.72 9.78817H252.04V0.444918H242.72V9.78817Z" fill="#3F3D56" stroke="#3F3D56"/>
<path d="M332.041 165.535H323.635V173.963H332.041V165.535Z" fill="#41B06E"/>
<path d="M337.145 169.147H326.938V158.914H337.145V169.147ZM327.382 168.702H336.702V159.359H327.382V168.702Z" fill="#3F3D56"/>
<path d="M317.382 69.8132H316.668V50.2013C316.668 48.7107 316.375 47.2347 315.806 45.8575C315.237 44.4804 314.403 43.2291 313.352 42.175C312.3 41.121 311.052 40.2849 309.679 39.7145C308.305 39.1441 306.833 38.8505 305.346 38.8505H263.9C262.413 38.8505 260.94 39.1441 259.567 39.7145C258.193 40.2849 256.945 41.121 255.893 42.175C254.842 43.2291 254.008 44.4804 253.439 45.8575C252.87 47.2347 252.577 48.7107 252.577 50.2013V157.794C252.577 159.284 252.87 160.76 253.439 162.137C254.008 163.515 254.842 164.766 255.893 165.82C256.945 166.874 258.193 167.71 259.567 168.28C260.94 168.851 262.413 169.144 263.9 169.144H305.346C306.833 169.144 308.305 168.851 309.679 168.28C311.052 167.71 312.301 166.874 313.352 165.82C314.403 164.766 315.237 163.515 315.806 162.137C316.375 160.76 316.668 159.284 316.668 157.794V83.7733H317.382V69.8132Z" fill="#3F3D56"/>
<path d="M314.257 50.8685V158.304C314.258 160.552 313.367 162.708 311.782 164.298C310.196 165.888 308.046 166.782 305.803 166.782H264.157C261.914 166.782 259.764 165.888 258.178 164.298C256.593 162.708 255.702 160.552 255.703 158.304V50.8685C255.703 48.6207 256.594 46.4651 258.179 44.8757C259.764 43.2863 261.915 42.3933 264.157 42.3931H269.209C268.961 43.0045 268.866 43.6679 268.933 44.3248C269.001 44.9816 269.228 45.6118 269.596 46.1598C269.963 46.7078 270.459 47.1568 271.041 47.4673C271.622 47.7777 272.271 47.94 272.929 47.94H296.673C297.332 47.94 297.981 47.7777 298.562 47.4673C299.143 47.1568 299.64 46.7078 300.007 46.1598C300.375 45.6118 300.602 44.9816 300.669 44.3248C300.737 43.6679 300.642 43.0045 300.393 42.3931H305.803C308.045 42.3933 310.195 43.2863 311.781 44.8757C313.366 46.4651 314.257 48.6207 314.257 50.8685Z" fill="#41B06E"/>
<path d="M291.183 113.231H278.777V116.917H291.183V113.231Z" fill="#3F3D56"/>
<path d="M306.181 84.5358H263.778V86.1154H306.181V84.5358Z" fill="#3F3D56"/>
<path d="M306.181 89.5378H263.778V91.1174H306.181V89.5378Z" fill="#3F3D56"/>
<path d="M306.181 94.5398H263.778V96.1194H306.181V94.5398Z" fill="#3F3D56"/>
<path d="M306.181 99.5418H263.778V101.121H306.181V99.5418Z" fill="#3F3D56"/>
<path d="M306.181 104.544H263.778V106.123H306.181V104.544Z" fill="#3F3D56"/>
<path d="M286.461 63.5591H279.108V70.9305H286.461V63.5591Z" fill="#F2F2F2"/>
<path d="M281.923 65.4025V74.3534H290.851V65.4025H281.923ZM290.464 73.9652H282.31V65.7907H290.464V73.9652Z" fill="#3F3D56"/>
<path opacity="0.1" d="M314.257 146.831V158.304C314.258 160.552 313.367 162.708 311.782 164.298C310.196 165.888 308.046 166.782 305.803 166.782H264.157C261.914 166.782 259.764 165.888 258.178 164.298C256.593 162.708 255.702 160.552 255.703 158.304V100.454L290.789 128.243L291.39 128.718L297.916 133.886L298.526 134.37L314.257 146.831Z" fill="black"/>
<path d="M281.377 163.301C288.65 163.301 294.547 157.389 294.547 150.097C294.547 142.806 288.65 136.894 281.377 136.894C274.103 136.894 268.207 142.806 268.207 150.097C268.207 157.389 274.103 163.301 281.377 163.301Z" fill="#F2F2F2"/>
<path d="M96.1215 197C90.9556 197 85.9058 195.464 81.6105 192.587C77.3153 189.71 73.9675 185.62 71.9906 180.836C70.0138 176.051 69.4965 170.786 70.5043 165.707C71.5121 160.628 73.9997 155.962 77.6525 152.3C81.3053 148.638 85.9593 146.144 91.0259 145.134C96.0925 144.123 101.344 144.642 106.117 146.624C110.889 148.606 114.969 151.962 117.839 156.268C120.709 160.574 122.24 165.637 122.24 170.815C122.233 177.758 119.478 184.413 114.582 189.322C109.685 194.231 103.046 196.992 96.1215 197ZM96.1215 145.233C91.0744 145.233 86.1406 146.733 81.9441 149.544C77.7476 152.355 74.4768 156.351 72.5454 161.025C70.6139 165.7 70.1086 170.844 71.0932 175.806C72.0779 180.769 74.5083 185.327 78.0771 188.905C81.6459 192.483 86.1929 194.919 91.143 195.907C96.0931 196.894 101.224 196.387 105.887 194.451C110.55 192.514 114.535 189.235 117.339 185.028C120.143 180.821 121.64 175.875 121.64 170.815C121.632 164.033 118.941 157.53 114.157 152.734C109.373 147.938 102.887 145.24 96.1215 145.233Z" fill="#3F3D56" stroke="#3F3D56"/>
<path d="M285.259 160.281C281.993 160.281 278.801 159.31 276.085 157.491C273.37 155.673 271.254 153.087 270.004 150.062C268.754 147.038 268.427 143.709 269.064 140.498C269.701 137.287 271.274 134.338 273.583 132.023C275.893 129.708 278.835 128.131 282.038 127.492C285.241 126.854 288.561 127.181 291.578 128.434C294.595 129.687 297.174 131.809 298.988 134.531C300.803 137.253 301.771 140.454 301.771 143.728C301.766 148.116 300.025 152.324 296.929 155.427C293.834 158.531 289.637 160.276 285.259 160.281ZM285.259 127.776C282.112 127.776 279.036 128.712 276.419 130.464C273.802 132.217 271.763 134.709 270.559 137.623C269.354 140.538 269.039 143.745 269.653 146.84C270.267 149.934 271.783 152.776 274.008 155.007C276.233 157.238 279.068 158.757 282.155 159.373C285.241 159.988 288.441 159.672 291.348 158.465C294.256 157.258 296.741 155.213 298.489 152.59C300.237 149.967 301.171 146.883 301.171 143.728C301.166 139.499 299.488 135.444 296.505 132.453C293.522 129.463 289.478 127.781 285.259 127.776Z" fill="#3F3D56"/>
</g>
<defs>
<clipPath id="clip0_6_245">
<rect width="342" height="197" fill="white"/>
</clipPath>
</defs>
</svg>
